# xmcd CD database file
#
# Track frame offsets:
#	150
#	15176
#	62176
#	110581
#	139031
#	180870
#	201914
#	239067
#	261607
#	280227
#	309129
#
# Disc length: 4685 seconds
#
# Revision: 0
# Processed by: cddbd v1.5.2PL0 Copyright (c) Steve Scherf et al.
# Submitted via: CDex 1.78
#
DISCID=9a124b0b
DTITLE=Buddy Rich - Strike It, Rich! Disc Four: The Monster
DYEAR=1955
DGENRE=Jazz
TTITLE0=Wrap your troubles in dreams
TTITLE1=Sunday
TTITLE2=The monster
TTITLE3=This can't be love
TTITLE4=A smooth one
TTITLE5=Now's the time
TTITLE6=Easy does it
TTITLE7=Drums in hi-fly
TTITLE8=Down for double
TTITLE9=Jumpin' at the woodside
TTITLE10=Undecided
EXTD=YEAR: 1955
EXTT0=
EXTT1=
EXTT2=
EXTT3=
EXTT4=
EXTT5=
EXTT6=
EXTT7=
EXTT8=
EXTT9=
EXTT10=
PLAYORDER=
